<svg width="800" height="800" viewBox="0 0 256 256" xmlns="http://www.w3.org/2000/svg"><path d="M128 82a46 46 0 1 0 46 46 46.052 46.052 0 0 0-46-46Zm0 68a22 22 0 1 1 22-22 22.025 22.025 0 0 1-22 22Zm48-130H80a60.068 60.068 0 0 0-60 60v96a60.068 60.068 0 0 0 60 60h96a60.068 60.068 0 0 0 60-60V80a60.068 60.068 0 0 0-60-60Zm36 156a36.04 36.04 0 0 1-36 36H80a36.04 36.04 0 0 1-36-36V80a36.04 36.04 0 0 1 36-36h96a36.04 36.04 0 0 1 36 36ZM196 76a16 16 0 1 1-16-16 16.018 16.018 0 0 1 16 16Z" fill="gray" /></svg>